<svg xmlns="http://www.w3.org/2000/svg" width="22" height="22" viewBox="0 0 22 22" fill="none">
  <path d="M16.5013 12.8327V10.0827H13.7513V8.24935H16.5013V5.49935H18.3346V8.24935H21.0846V10.0827H18.3346V12.8327H16.5013ZM8.2513 10.9993C7.24297 10.9993 6.37978 10.6403 5.66172 9.92227C4.94366 9.20421 4.58464 8.34102 4.58464 7.33268C4.58464 6.32435 4.94366 5.46115 5.66172 4.7431C6.37978 4.02504 7.24297 3.66602 8.2513 3.66602C9.25964 3.66602 10.1228 4.02504 10.8409 4.7431C11.5589 5.46115 11.918 6.32435 11.918 7.33268C11.918 8.34102 11.5589 9.20421 10.8409 9.92227C10.1228 10.6403 9.25964 10.9993 8.2513 10.9993ZM0.917969 18.3327V15.766C0.917969 15.2466 1.0518 14.769 1.31947 14.3333C1.58714 13.8975 1.94219 13.5654 2.38464 13.3368C3.33186 12.8632 4.29436 12.5079 5.27214 12.2708C6.24991 12.0337 7.24297 11.9154 8.2513 11.916C9.25964 11.916 10.2527 12.0346 11.2305 12.2717C12.2082 12.5088 13.1707 12.8638 14.118 13.3368C14.561 13.566 14.9164 13.8985 15.1841 14.3342C15.4517 14.7699 15.5852 15.2472 15.5846 15.766V18.3327H0.917969Z" fill="black"/>
</svg>