<svg xmlns="http://www.w3.org/2000/svg" width="78" height="78" viewBox="0 0 78 78" fill="none">
  <path fill-rule="evenodd" clip-rule="evenodd" d="M71.5 39C71.5 56.9497 56.9497 71.5 39 71.5C21.0503 71.5 6.5 56.9497 6.5 39C6.5 21.0503 21.0503 6.5 39 6.5C56.9497 6.5 71.5 21.0503 71.5 39ZM33.4523 46.4523C32.8602 47.0652 32.1091 47.782 32.1165 48.6341C32.1239 49.4862 32.8893 50.4056 33.4918 51.0082C34.0944 51.6107 34.9349 52.2973 35.787 52.3047C36.6392 52.3121 37.4348 51.6398 38.0478 51.0477L47.7978 41.2978C48.407 40.6883 48.7493 39.8618 48.7493 39C48.7493 38.1382 48.407 37.3117 47.7978 36.7023L38.0478 26.9523C37.4348 26.3602 36.6392 25.6855 35.787 25.6929C34.9349 25.7003 34.0944 26.3893 33.4918 26.9918C32.8893 27.5944 32.1239 28.5114 32.1165 29.3635C32.1091 30.2157 32.8602 30.9348 33.4523 31.5478L40.9045 39L33.4523 46.4523Z" fill="#212B36" fill-opacity="0.8"/>
</svg>