<svg xmlns="http://www.w3.org/2000/svg" width="84" height="48" viewBox="0 0 84 48" fill="none">
<path d="M81.3429 15.7127C80.7392 16.045 79.6817 17.9736 77.5302 18.8731C76.181 19.4484 74.3091 18.7961 74.3051 17.3496C74.3051 16.8634 74.7629 16.8148 75.079 16.7176C77.1534 16.0652 79.2319 15.1698 81.3064 13.9786C82.2261 13.456 83.0851 12.6294 83.077 10.7413C83.0689 8.50885 80.9012 6.54378 76.019 8.33463C71.712 9.85806 67.9642 13.1845 67.9845 17.6292C68.0007 21.2433 70.6829 25.1451 75.8528 23.4677C78.4378 22.7019 82.4773 18.7515 82.4692 16.4745C82.4692 15.9315 81.9466 15.3684 81.3429 15.7127ZM75.8609 11.0087C76.9225 10.64 77.5586 11.1708 77.5626 12.204C77.5667 13.2372 76.647 13.4398 75.8731 13.7031C75.1276 13.9665 74.1511 14.4729 74.1471 13.4357C74.1471 12.516 74.9128 11.3329 75.8609 11.0087Z" fill="white"/>
<path d="M64.372 9.54633C65.8306 9.5909 67.0097 8.35108 67.0097 6.89247C67.0097 5.43387 65.8266 4.31155 64.372 4.26698C62.9134 4.22241 61.7344 5.2799 61.7344 6.73851C61.7344 8.19307 62.9175 9.50176 64.372 9.54228V9.54633Z" fill="white"/>
<path d="M13.4273 10.0428C13.3908 10.0428 13.3544 10.0428 13.3138 10.0428C13.1639 10.063 13.0019 10.217 12.7831 10.4358C12.2685 10.9544 11.4906 11.6959 9.68353 12.1294C6.94054 12.8101 5.02409 11.3272 5.02409 7.90755C5.02409 6.80549 5.66426 4.82421 7.42674 4.22456C9.59439 3.53173 10.3683 4.6743 10.9922 5.53731C11.4663 6.20989 11.839 6.74066 12.6615 6.61506C12.8236 6.59075 12.9735 6.55023 13.1113 6.49756C13.2369 6.44894 13.3544 6.38816 13.4597 6.31929C13.6056 6.2261 13.7352 6.11265 13.8446 5.98705C14.2214 5.55757 14.4037 4.97007 14.4037 4.41904C14.4037 4.37448 14.4037 4.32991 14.3997 4.28534C14.3956 4.07465 14.3835 3.87612 14.3592 3.68569C14.3389 3.52362 14.3146 3.36966 14.2822 3.2238C13.9824 1.82597 13.1882 1.14123 12.6007 1.23037C12.4589 1.25063 12.3617 1.2952 12.2482 1.34382C12.1064 1.40459 11.9403 1.47752 11.681 1.52614C11.4663 1.56666 11.1908 1.49778 10.8099 1.41269C10.1454 1.26683 9.13655 1.0602 7.84406 1.46537C4.12867 2.53096 0 8.14254 0 12.4697C0 16.5376 3.43988 17.4736 7.67389 16.1487C9.21353 15.6544 10.3318 14.9251 11.1502 14.4064C11.6162 14.1147 11.9484 13.9121 12.228 13.8676C13.0302 13.7379 13.8365 12.2226 14.0026 11.311C14.0229 11.1975 14.035 11.0962 14.035 11.0071C14.035 10.6181 13.8406 10.0792 13.4313 10.0428H13.4273Z" fill="white"/>
<path d="M17.5851 13.3659L17.4838 13.062C17.4838 13.062 17.5163 13.062 17.5325 13.062H17.7999C17.9822 13.3902 18.282 14.0547 18.3631 14.3788C18.4684 14.8123 18.5211 15.2499 18.4927 15.5173C18.4765 15.6713 18.4603 15.8252 18.4441 15.9792C18.3995 16.3803 18.3509 16.7936 18.3469 17.1988C18.3428 17.7579 18.5981 17.8551 18.7682 17.9159C18.8655 17.9524 19.1531 17.9726 19.3031 17.766C19.3841 17.6525 19.4813 17.6485 19.5826 16.984C19.6312 16.6599 19.6434 16.5586 19.6231 16.2304C19.615 16.0845 19.6069 15.9387 19.5988 15.7928C19.5988 15.7442 19.5988 15.6996 19.5988 15.651C19.615 15.3188 19.7042 15.0271 19.8784 14.7434C19.927 14.6665 19.9756 14.5935 20.0324 14.5287C20.0607 14.4963 20.0891 14.4639 20.1174 14.4315C20.1174 14.4315 20.1174 14.4315 20.1215 14.4274C20.1499 14.399 20.1782 14.3707 20.2066 14.3464C20.2106 14.3423 20.2187 14.3383 20.2228 14.3342C20.2471 14.3099 20.2755 14.2897 20.3038 14.2694C20.316 14.2613 20.3241 14.2532 20.3362 14.2451C20.3605 14.2289 20.3808 14.2127 20.4051 14.1965C20.4213 14.1843 20.4416 14.1762 20.4578 14.1681C20.474 14.16 20.4902 14.1478 20.5105 14.1397C20.5469 14.1235 20.5834 14.1073 20.6198 14.0911C20.7495 14.0425 20.7049 14.0465 20.8305 14.0465C21.1506 14.0465 21.1871 14.1438 21.4464 14.472C21.4869 14.5246 21.5274 14.5773 21.5639 14.634C21.5801 14.6543 21.5923 14.6746 21.6044 14.6989C21.6247 14.7313 21.6449 14.7637 21.6652 14.7961C21.7057 14.865 21.7462 14.9379 21.7827 15.0108C21.8029 15.0554 21.8232 15.1 21.8435 15.1446C21.8475 15.1567 21.8556 15.1689 21.8597 15.1851C21.8759 15.2296 21.8921 15.2742 21.9083 15.3147C21.9123 15.3269 21.9164 15.3431 21.9245 15.3552C21.9407 15.3998 21.9529 15.4444 21.965 15.4889C21.965 15.4971 21.9691 15.5092 21.9731 15.5173C22.0136 15.6713 22.046 15.8252 22.0663 15.9833C22.0663 15.9914 22.0663 15.9995 22.0663 16.0076C22.0704 16.0521 22.0785 16.1008 22.0825 16.1453C22.0825 16.1615 22.0825 16.1777 22.0866 16.198C22.0866 16.2426 22.0947 16.2871 22.0947 16.3276C22.0947 16.3479 22.0947 16.3682 22.0947 16.3844C22.0947 16.4289 22.0947 16.4695 22.0947 16.514C22.0947 16.5302 22.0947 16.5505 22.0947 16.5667C22.0947 16.6558 22.0947 16.745 22.0906 16.8382C22.0906 16.8503 22.0906 16.8665 22.0906 16.8787C22.0906 16.9151 22.0906 16.9516 22.0866 16.9921C22.0866 17.0205 22.0866 17.0529 22.0825 17.0853C22.0825 17.1177 22.0785 17.1542 22.0744 17.1866C22.0744 17.2231 22.0704 17.2555 22.0663 17.2919C22.0663 17.3244 22.0622 17.3527 22.0582 17.3851C22.0582 17.4257 22.0501 17.4702 22.046 17.5107C22.046 17.5351 22.042 17.5594 22.0379 17.5837C22.0298 17.6485 22.0217 17.7174 22.0136 17.7822C21.9204 18.5682 21.7908 19.3583 21.6611 20.12C21.5477 20.8048 21.4302 21.5098 21.341 22.2107C21.3248 22.3403 21.3127 22.47 21.3046 22.6037C21.3005 22.6604 21.2965 22.7172 21.2924 22.7739C21.2924 22.8225 21.2924 22.8711 21.2884 22.9238C21.2803 23.1304 21.2843 23.3371 21.2965 23.5437C21.2965 23.5478 21.2965 23.5518 21.2965 23.5559C21.2965 23.6166 21.3046 23.6734 21.3086 23.7301C21.3208 23.8597 21.3329 23.9894 21.3492 24.119C21.4788 25.0307 21.8718 25.2454 22.4269 25.29C23.0954 25.3386 23.614 24.9456 23.8207 24.2325C23.9179 23.9002 23.9746 23.564 23.9949 23.2236C23.9949 23.2236 23.9949 23.2236 23.9949 23.2196C24.003 23.1061 24.003 22.9927 24.003 22.8752C24.003 22.628 23.9746 22.3768 23.9341 22.1256C23.9341 22.1216 23.9341 22.1175 23.9341 22.1135C23.9139 22 23.8896 21.8866 23.8612 21.7691C23.8612 21.7529 23.8571 21.7407 23.8531 21.7245C23.8207 21.5989 23.7842 21.4692 23.7437 21.3436C23.1076 19.415 23.1522 17.3851 23.1886 15.5902C23.1886 15.5578 23.1886 15.5173 23.1927 15.4768C23.1927 15.4687 23.1927 15.4606 23.1927 15.4525C23.1927 15.4079 23.2008 15.3633 23.2048 15.3147C23.217 15.2053 23.2291 15.0757 23.2494 14.942C23.3223 14.4517 23.533 13.6171 23.9463 13.0579H24.4001L24.1691 13.3618C23.9139 13.532 23.6951 14.237 23.5897 14.8974C25.8708 14.5571 27.7994 13.4266 28.6584 11.4575C28.9663 10.7485 29.1405 9.93409 29.1405 9.0103C29.1405 8.25264 28.9623 7.25998 28.5733 6.20249C27.609 3.58915 25.3441 0.445042 21.3005 0.0358214C18.4562 -0.239693 16.0212 1.09736 14.6234 3.24476C14.6517 3.39872 14.672 3.55674 14.6882 3.72285C14.7084 3.93759 14.7246 4.16044 14.7246 4.39949C14.7246 5.29896 14.3559 6.04042 13.7563 6.49421C13.6469 6.57929 13.5253 6.65222 13.4038 6.71705C13.3754 6.98446 13.3633 7.25998 13.3633 7.53549C13.3633 8.33367 13.4767 9.07513 13.6834 9.75581C13.7077 9.83685 13.736 9.91788 13.7644 9.99486C13.8819 10.3352 14.0278 10.6593 14.1939 10.9673C14.2425 11.0564 14.2911 11.1415 14.3397 11.2266C15.1541 12.5758 16.4264 13.5968 17.9822 14.237C17.8809 13.8966 17.7675 13.5928 17.6297 13.451L17.5851 13.3699V13.3659ZM20.3565 3.01381C22.7551 3.20019 23.8652 8.19592 23.8652 10.0516C23.8652 11.1617 23.3304 12.1585 22.0785 12.0167C19.8622 11.7776 18.6305 6.87507 18.6305 5.12474C18.6305 4.12397 19.2058 2.93683 20.3524 3.01786L20.3565 3.01381Z" fill="white"/>
<path d="M21.2027 14.6499C20.9394 14.3136 21.0164 14.3379 20.7368 14.4028C20.5423 14.4473 20.3762 14.6256 20.2344 14.8201C20.6395 14.9052 20.6314 14.9295 21.0609 14.966C21.1744 14.9741 21.2878 14.9822 21.4013 14.9903C21.3405 14.8849 21.2838 14.7512 21.2027 14.6499Z" fill="white"/>
<path d="M39.4486 16.7511C39.2419 16.901 39.1123 17.136 39.092 17.3994C39.0637 17.7964 39.0434 18.1975 39.0312 18.6149C39.4931 18.5865 39.9388 18.5176 40.3561 18.4042C40.3845 18.1206 40.4129 17.8288 40.4291 17.5452C40.4574 17.0063 40.3035 16.7268 39.9267 16.6336C39.7768 16.5971 39.6025 16.6417 39.4486 16.7511Z" fill="white"/>
<path d="M34.1487 27.6357C34.1244 27.5466 34.1 27.4575 34.0717 27.3683C34.0474 27.2913 34.0231 27.2144 33.9947 27.1414C33.2816 25.0548 31.4746 22.875 27.0339 22.875H24.3395C24.3476 23.3653 24.2828 23.8515 24.1451 24.3255C23.9101 25.1358 23.3064 25.622 22.5487 25.622C22.5041 25.622 22.4555 25.622 22.4109 25.618C21.5884 25.5532 21.163 25.1075 21.0334 24.1634C20.9766 23.7461 20.9564 23.3085 20.9726 22.875H20.3486C19.6963 22.875 18.6064 22.9966 18.6064 23.7988C18.6064 24.2809 18.8171 24.3701 19.1372 24.5078C19.5788 24.6983 20.1298 24.9333 20.1015 26.2217L19.9354 33.3405C19.8948 35.2205 19.2263 35.4069 18.7401 35.5446C18.416 35.6338 18.2539 35.6824 18.2539 36.1686C18.2539 36.906 19.1007 37.1734 19.6679 37.1734C20.2352 37.1734 20.8227 37.1531 21.4021 37.1126C21.9207 37.0924 22.5608 37.0721 23.1564 37.0721C23.667 37.0721 24.1491 37.0883 24.7082 37.1045L24.927 37.1126C25.5712 37.1531 26.3046 37.1734 27.1798 37.1734C31.0248 37.1734 33.0871 35.1678 33.9501 32.8016C33.9785 32.7206 34.0069 32.6396 34.0352 32.5585C34.0636 32.4653 34.0919 32.3722 34.1203 32.279C34.3431 31.5051 34.4444 30.7069 34.4444 29.9371C34.4444 29.3374 34.3877 28.5149 34.1527 27.6398L34.1487 27.6357ZM26.1304 35.3704C24.9068 35.3704 24.692 34.8396 24.692 33.7295V26.0758C24.692 25.2939 24.769 24.7833 25.7819 24.7833C28.1724 24.7833 29.3312 26.6552 29.3312 30.5084C29.3312 34.3615 27.589 35.3704 26.1304 35.3704Z" fill="white"/>
<path d="M48.8382 28.091C48.8382 28.2085 48.8382 28.326 48.8301 28.4394C48.8139 28.7676 48.6478 29.0918 48.3642 29.343C48.0441 29.6306 47.6227 29.7927 47.2216 29.7927C47.1892 29.7927 47.1608 29.7927 47.1284 29.7927C46.6868 29.7643 46.152 29.4888 46.1074 28.3341C46.1074 28.3017 46.1074 28.2693 46.1033 28.2369C46.0952 28.1194 46.0912 27.9938 46.1074 27.8682C46.1479 27.6048 46.1844 27.3414 46.2249 27.074C46.3302 26.3285 46.4437 25.5587 46.5976 24.8051C46.6139 24.7362 46.622 24.6673 46.6341 24.5984C46.3343 24.3229 46.0061 24.0717 45.6455 23.8448C45.6252 24.0839 45.5523 24.2743 45.4105 24.404C45.2322 24.5701 44.9648 24.639 44.6164 24.6025C44.3247 24.5741 44.1221 24.4809 43.9965 24.3148C43.8587 24.1325 43.8222 23.8813 43.8871 23.5166C43.9114 23.3708 43.9438 23.2209 43.9722 23.075C43.255 22.8562 42.4487 22.7266 41.5533 22.7266C40.7713 22.7266 40.0299 22.8198 39.333 22.994C39.3532 23.1358 39.3694 23.2816 39.3816 23.4235C39.4221 23.8489 39.3978 24.3027 39.3168 24.7686C39.2033 25.425 38.709 25.8464 38.077 25.8464C38.0405 25.8464 38.0081 25.8464 37.9716 25.8464C37.2585 25.7937 36.7966 25.3034 36.7966 24.5944C36.7966 24.4485 36.7966 24.2865 36.8047 24.1203C35.7108 24.874 34.8599 25.895 34.3453 27.1145C34.6897 28.1801 34.7708 29.2093 34.7708 29.9305C34.7708 30.8745 34.6249 31.8591 34.3008 32.795C35.3826 35.5218 38.0364 37.3572 41.3021 37.3572C44.5678 37.3572 47.7443 35.5745 48.8382 32.483C49.0854 31.7861 49.2231 31.0244 49.2231 30.2019C49.2231 29.6266 49.1056 28.8851 48.8423 28.091H48.8382ZM42.3231 34.6345C39.9529 34.6345 38.7131 29.5739 38.7131 27.8236C38.7131 26.681 39.3735 25.4615 40.6012 25.4615C43.1456 25.4615 44.276 30.3964 44.276 32.2723C44.276 33.3622 43.7655 34.6345 42.3272 34.6345H42.3231Z" fill="white"/>
<path d="M28.8386 11.9307C30.0298 14.8317 32.6836 17.206 35.8561 18.1906C36.318 18.3324 36.7758 18.4377 37.2255 18.5107C37.2255 18.5066 37.2255 18.4985 37.2255 18.4944C37.1891 18.0123 37.0716 17.6963 36.869 17.5545C36.7191 17.4491 36.5124 17.437 36.2491 17.5099C35.5238 17.7125 35.0741 17.5909 34.7297 17.1736L35.0295 17.052C35.3131 17.3721 35.6535 17.3397 36.16 17.1898C36.2977 17.1493 36.4274 17.1331 36.5489 17.1331C36.7434 17.1331 36.9136 17.1858 37.0594 17.283C37.3471 17.4856 37.5132 17.8867 37.5578 18.4701C37.5578 18.4985 37.5578 18.5269 37.5618 18.5593C37.5659 18.6322 37.5699 18.7092 37.578 18.7862C37.578 18.7943 37.578 18.8064 37.578 18.8145C37.5821 18.8834 37.5861 18.9523 37.5902 19.0212C37.5902 19.0374 37.5902 19.0536 37.5902 19.0657C37.5902 19.1306 37.5983 19.1954 37.5983 19.2602C37.5983 19.2805 37.5983 19.3048 37.5983 19.325C37.5983 19.3858 37.6024 19.4466 37.6064 19.5074C37.6064 19.5357 37.6064 19.56 37.6064 19.5884C37.6064 19.6451 37.6064 19.7018 37.6064 19.7626C37.6064 19.795 37.6064 19.8234 37.6064 19.8558C37.6064 19.9085 37.6064 19.9652 37.6064 20.0179C37.6064 20.0543 37.6064 20.0868 37.6064 20.1232C37.6064 20.1759 37.6064 20.2286 37.6064 20.2812C37.6064 20.3177 37.6064 20.3542 37.6064 20.3906C37.6064 20.4393 37.6064 20.4919 37.6023 20.5446C37.6023 20.5851 37.6024 20.6256 37.5983 20.6661C37.5983 20.7148 37.5942 20.7634 37.5902 20.812C37.5902 20.8566 37.5861 20.8971 37.5821 20.9417C37.5821 20.9862 37.574 21.0349 37.574 21.0794C37.574 21.124 37.5659 21.1686 37.5618 21.2172C37.5578 21.2617 37.5537 21.3063 37.5497 21.3509C37.5456 21.3995 37.5375 21.4441 37.5335 21.4927C37.5294 21.5373 37.5254 21.5818 37.5173 21.6223C37.5092 21.671 37.5011 21.7236 37.497 21.7723C37.493 21.8128 37.4849 21.8533 37.4808 21.8979C37.4727 21.9505 37.4605 22.0032 37.4524 22.0599C37.4443 22.0964 37.4403 22.1369 37.4322 22.1734C37.42 22.2342 37.4079 22.2949 37.3957 22.3557C37.3876 22.3881 37.3836 22.4165 37.3755 22.4489C37.3552 22.5421 37.3349 22.6312 37.3106 22.7244C37.2863 22.8257 37.262 22.927 37.2458 23.0283C37.2418 23.0566 37.2377 23.081 37.2296 23.1093C37.2134 23.1944 37.2012 23.2754 37.1931 23.3605C37.1931 23.3808 37.1891 23.397 37.185 23.4172C37.1567 23.6441 37.1405 23.867 37.1324 24.0817C37.1324 24.0939 37.1324 24.106 37.1324 24.1141C37.1324 24.1587 37.1324 24.1992 37.1283 24.2438C37.1283 24.2559 37.1283 24.2721 37.1283 24.2843C37.1283 24.3329 37.1283 24.3815 37.1283 24.4261C37.1283 24.4869 37.1283 24.5477 37.1283 24.6044C37.1283 25.1352 37.4605 25.4877 37.9994 25.5282C38.514 25.5687 38.9029 25.2486 38.9961 24.7259C39.0731 24.2924 39.0934 23.8589 39.0569 23.4659C39.0245 23.0972 38.9637 22.7244 38.911 22.3638C38.8381 21.8736 38.7571 21.3671 38.7368 20.8606C38.7287 20.654 38.7206 20.4555 38.7166 20.2569C38.7044 19.8882 38.7004 19.5276 38.7044 19.1792C38.7044 19.1792 38.7044 19.1711 38.7044 19.167C38.7044 18.9847 38.7044 18.8064 38.7125 18.6322C38.7166 18.4418 38.7247 18.2554 38.7328 18.065C38.7328 18.0204 38.7368 17.9758 38.7409 17.9313C38.749 17.7449 38.7611 17.5626 38.7733 17.3802C38.8016 17.0196 38.9799 16.6955 39.2635 16.4889C39.4985 16.3187 39.7741 16.2539 40.0172 16.3146C40.552 16.4483 40.8072 16.8697 40.7708 17.5626C40.7627 17.7327 40.7465 17.907 40.7343 18.0812C40.7262 18.1541 40.7221 18.227 40.714 18.304C40.6978 18.458 40.6816 18.6119 40.6654 18.7659C40.629 19.0981 40.5925 19.4425 40.5722 19.7788C40.556 20.026 40.6087 20.2205 40.7221 20.342C40.8153 20.4433 40.9531 20.4879 41.1314 20.4919C41.3015 20.4919 41.4352 20.4433 41.5244 20.3501C41.6297 20.2407 41.6783 20.0543 41.6662 19.8153C41.6419 19.3858 41.5771 18.9442 41.5163 18.5188C41.496 18.3729 41.4717 18.223 41.4515 18.0771C41.4515 18.0528 41.4433 18.0285 41.4433 18.0001C41.4433 17.9839 41.4433 17.9718 41.4393 17.9556C41.4393 17.9434 41.4393 17.9313 41.4352 17.9151C41.4352 17.9029 41.4352 17.8907 41.4312 17.8745C41.4312 17.8583 41.4312 17.8421 41.4271 17.83C41.4271 17.8178 41.4271 17.8057 41.4271 17.7895C41.4271 17.7732 41.4271 17.757 41.4271 17.7408C41.4271 17.7287 41.4271 17.7125 41.4271 17.7003C41.4271 17.6841 41.4271 17.6679 41.4271 17.6517C41.4271 17.6395 41.4271 17.6233 41.4271 17.6112C41.4271 17.595 41.4271 17.5788 41.4271 17.5626C41.4271 17.5504 41.4271 17.5342 41.4271 17.522C41.4271 17.5058 41.4271 17.4896 41.4271 17.4734C41.4271 17.4613 41.4271 17.4451 41.4271 17.4329C41.4271 17.4167 41.4271 17.4005 41.4352 17.3843C41.4352 17.3721 41.4393 17.3559 41.4433 17.3438C41.4433 17.3276 41.4515 17.3114 41.4555 17.2951C41.4555 17.283 41.4636 17.2708 41.4636 17.2546C41.4677 17.2384 41.4717 17.2222 41.4798 17.206C41.4839 17.1939 41.4879 17.1817 41.492 17.1695C41.496 17.1533 41.5041 17.1371 41.5122 17.125C41.5163 17.1128 41.5244 17.1007 41.5284 17.0885C41.5365 17.0723 41.5446 17.0561 41.5527 17.0439C41.5608 17.0318 41.5649 17.0196 41.573 17.0075C41.5811 16.9913 41.5933 16.9791 41.6054 16.9629C41.6135 16.9508 41.6216 16.9426 41.6297 16.9305C41.6419 16.9143 41.6581 16.9021 41.6702 16.8859C41.6783 16.8778 41.6864 16.8657 41.6986 16.8576C41.7148 16.8414 41.7351 16.8252 41.7513 16.813C41.7594 16.8049 41.7675 16.7968 41.7796 16.7887C41.808 16.7644 41.8404 16.7441 41.8728 16.7239C42.2577 16.4848 42.4077 16.1404 42.432 15.6988L42.7561 15.715C42.7075 16.1931 42.5738 16.6752 42.043 17.0034C41.7594 17.1817 41.727 17.4572 41.7634 17.8178C43.1086 16.9913 43.9675 15.5327 43.9675 13.4541C43.9675 10.8246 41.7918 5.09147 36.1316 3.31278C32.7403 2.25529 29.9244 3.32088 28.7656 5.81267C29.2761 7.08895 29.499 8.27609 29.4949 9.09048C29.4949 10.1966 29.264 11.1406 28.8629 11.9348L28.8386 11.9307ZM35.1592 6.07603C37.5578 6.80533 38.6679 11.955 38.6679 13.8188C38.6679 14.929 38.1331 15.8406 36.8812 15.4476C34.6649 14.7547 33.4332 9.50781 33.4332 7.76153C33.4332 6.75671 34.0085 5.72758 35.1551 6.07603H35.1592Z" fill="white"/>
<path d="M67.786 22.8179C67.6806 22.7692 67.5753 22.7206 67.4618 22.6598C67.4416 22.6477 67.4173 22.6355 67.397 22.6274C66.9149 22.3803 66.7163 22.1453 66.7163 18.7297V16.6998C66.7163 15.0224 66.7528 13.341 67.1661 12.8426C67.3605 12.6117 67.6036 12.4658 67.8143 12.3402C68.1749 12.1214 68.3816 11.9836 68.3816 11.6311C68.3816 10.5818 66.5097 10.5291 65.2699 10.4967C65.0997 10.4926 64.9417 10.4886 64.7999 10.4805C64.7148 10.4886 64.5568 10.4886 64.261 10.4845C64.1232 10.4845 63.9612 10.4845 63.7789 10.4845C62.7254 10.4845 61.0642 10.5453 60.5254 11.0761C60.416 11.1855 60.3633 11.303 60.3633 11.4448C60.3633 11.854 60.6307 12.0606 60.967 12.324C61.1777 12.4861 61.4127 12.6724 61.6031 12.9277C61.8381 13.2518 62.065 13.7947 62.065 16.5539V18.5838C62.065 21.4565 61.8665 22.2547 61.5707 22.5707C61.5423 22.6031 61.5099 22.6315 61.4734 22.6598C61.4613 22.6679 61.4532 22.676 61.441 22.6841C61.4167 22.7044 61.3924 22.7206 61.3681 22.7368C61.3559 22.7449 61.3438 22.753 61.3316 22.7611C61.2992 22.7814 61.2668 22.8016 61.2344 22.8179C61.1898 22.8422 61.1453 22.8665 61.0966 22.8908C60.7806 23.0569 60.5902 23.1744 60.5902 23.4864C60.5902 23.535 60.5942 23.5796 60.6023 23.6241C60.6023 23.6363 60.6064 23.6484 60.6104 23.6606C60.6185 23.7011 60.6307 23.7376 60.6428 23.774C60.6428 23.7781 60.6428 23.7822 60.6469 23.7862C60.6631 23.8267 60.6834 23.8672 60.7077 23.9037C60.7117 23.9118 60.7198 23.924 60.7279 23.9321C60.7482 23.9645 60.7725 23.9928 60.7968 24.0253C60.8009 24.0334 60.8049 24.0374 60.813 24.0455C60.8454 24.082 60.8778 24.1144 60.9143 24.1468C60.9224 24.1549 60.9305 24.163 60.9427 24.1711C60.9751 24.1995 61.0075 24.2238 61.0399 24.2481C61.048 24.2562 61.0561 24.2603 61.0642 24.2684C61.1047 24.2967 61.1493 24.3251 61.1979 24.3534C61.206 24.3575 61.2182 24.3656 61.2263 24.3696C61.2668 24.394 61.3073 24.4142 61.3519 24.4345C61.364 24.4385 61.3722 24.4466 61.3843 24.4507C61.437 24.475 61.4897 24.4993 61.5423 24.5196C61.5504 24.5196 61.5585 24.5236 61.5666 24.5277C61.6153 24.5479 61.6639 24.5682 61.7165 24.5844C61.7287 24.5844 61.7368 24.5925 61.749 24.5965C61.8057 24.6168 61.8665 24.6371 61.9272 24.6533C61.988 24.6695 62.0488 24.6897 62.1096 24.7059C62.1177 24.7059 62.1258 24.71 62.1379 24.714C62.2635 24.7465 62.3932 24.7748 62.5228 24.7991C62.5269 24.7991 62.535 24.7991 62.539 24.7991C62.8186 24.8518 63.0901 24.8883 63.3332 24.9126C63.3737 24.9126 63.4142 24.9207 63.4507 24.9247C63.4507 24.9247 63.4547 24.9247 63.4588 24.9247C63.4952 24.9247 63.5317 24.9288 63.5641 24.9328C63.5682 24.9328 63.5722 24.9328 63.5763 24.9328C63.6087 24.9328 63.637 24.9328 63.6695 24.9369C63.6735 24.9369 63.6816 24.9369 63.6857 24.9369C63.714 24.9369 63.7383 24.9369 63.7667 24.9369C63.7748 24.9369 63.7789 24.9369 63.787 24.9369C63.8194 24.9369 63.8477 24.9369 63.8761 24.9369C66.1167 24.9815 67.5429 24.7221 68.1101 24.163C68.3532 23.924 68.3856 23.6768 68.3856 23.4702C68.3856 23.0893 68.1911 22.984 67.79 22.7976L67.786 22.8179Z" fill="white"/>
<path d="M59.7398 24.1924C59.4926 24.403 59.1442 24.4679 58.7917 24.4679C58.5243 24.4679 58.2569 24.4314 58.034 24.3909C58.0097 24.3868 57.9813 24.3828 57.957 24.3787C57.9651 24.5489 57.9975 24.7272 58.034 24.9014L58.0421 24.9338C58.0786 25.1121 58.1191 25.2863 58.1596 25.4646C58.1596 25.4767 58.1637 25.4889 58.1677 25.5011C59.5493 26.2709 59.9059 27.9888 61.482 27.9888C62.5881 27.9888 63.1027 26.9637 63.1027 25.9589C63.1027 25.7482 63.0703 25.497 63.0135 25.2255C61.9479 25.0918 60.2624 24.6907 60.2624 23.5036C60.2624 23.2686 60.3394 23.0984 60.4529 22.9688C60.3151 23.0133 60.1814 23.0619 60.0518 23.0903C60.068 23.1835 60.0761 23.2807 60.0761 23.3861C60.0761 23.7386 59.9626 24.0141 59.7438 24.1964L59.7398 24.1924Z" fill="white"/>
<path d="M60.7373 29.7267C60.008 29.7267 58.2779 29.7753 57.3015 30.3182C57.0989 30.4195 56.7748 30.4641 56.6127 31.1447C56.6005 31.2055 56.5924 31.2663 56.5924 31.3311C56.5924 33.2192 58.7479 31.558 58.7479 33.2597C58.7479 33.9971 58.2131 34.532 57.496 34.532C56.1832 34.532 53.7198 33.0126 53.7198 28.7867C53.7198 27.3605 54.2182 26.2341 55.0609 25.6304C55.1298 25.2252 55.1906 24.812 55.223 24.4068C55.2392 24.192 55.223 24.0016 55.1906 23.8355C54.9718 23.7869 54.753 23.7383 54.5301 23.6896C53.971 23.56 53.7522 23.4627 53.4443 23.0859C51.3617 23.8314 49.6924 25.3427 48.9023 27.3321C49.348 28.4058 49.5425 29.443 49.5425 30.2007C49.5425 31.2015 49.348 32.1171 49.0077 32.9396C50.2475 35.7758 53.2336 37.5261 56.5479 37.5261C59.461 37.5261 62.3539 36.0918 63.1521 33.0936C63.2939 32.5588 63.3385 32.4575 63.8693 32.3967C64.3636 32.3157 64.8133 31.947 64.8133 31.4122C64.8133 30.8166 64.5864 29.7307 60.7292 29.7307L60.7373 29.7267Z" fill="white"/>
<path d="M42.9336 6.98084C42.9336 7.4954 43.1281 7.67773 43.4036 7.92893C43.7318 8.23281 44.1369 8.60962 44.2869 9.6509C44.4975 10.8826 44.4935 12.248 44.4935 13.4473V13.739C44.4935 14.9667 44.4692 16.2551 44.2869 17.3329C44.1369 18.3094 43.6994 18.4795 43.3793 18.6011C43.1402 18.6943 43.0187 18.7388 43.0187 19.1116C43.0187 19.4843 43.1443 19.9098 44.2018 20.4567C44.1248 20.1893 43.9992 19.9503 43.8209 19.7315L43.4482 19.2696L44.0438 19.4884C44.141 19.6505 44.4165 20.0921 44.4408 20.1488C44.4489 20.1691 44.457 20.1893 44.4651 20.2096C44.4813 20.2582 44.4975 20.3109 44.5138 20.3595C44.5219 20.3798 44.5259 20.4041 44.534 20.4243C44.5543 20.4932 44.5705 20.5661 44.5826 20.6391C44.6353 20.951 44.6394 21.2914 44.5948 21.6723C44.5786 21.7979 44.5583 21.9275 44.534 22.0653C44.4894 22.2881 44.4408 22.5109 44.3922 22.7338C44.3598 22.8837 44.3274 23.0336 44.295 23.1835C44.2666 23.3132 44.2423 23.4469 44.218 23.5765C44.1734 23.8358 44.1896 24.0141 44.2666 24.1154C44.3314 24.2005 44.4611 24.2532 44.6556 24.2734C44.9068 24.2977 45.0891 24.2613 45.1904 24.164C45.2876 24.0708 45.3362 23.9088 45.3281 23.6819C45.316 23.4023 45.2633 23.1268 45.2066 22.8391C45.1742 22.6852 45.1458 22.5272 45.1215 22.3732V22.3448C45.0891 22.1544 45.0567 21.9599 45.0729 21.7614C45.085 21.6277 45.1134 21.5061 45.158 21.4008C45.1863 21.3319 45.2268 21.2671 45.2674 21.2144C45.3322 21.1334 45.4132 21.0645 45.5105 21.0159C45.551 20.9956 45.5915 20.9794 45.6401 20.9632C45.6847 20.9511 45.7333 20.9389 45.7819 20.9308C45.8387 20.9227 45.8913 20.9186 45.944 20.9186C45.9886 20.9186 46.0331 20.9186 46.0736 20.9267C46.0899 20.9267 46.102 20.9308 46.1142 20.9348C46.1425 20.9389 46.1668 20.947 46.1952 20.9551C46.2114 20.9592 46.2276 20.9673 46.2438 20.9713C46.2641 20.9794 46.2884 20.9875 46.3086 20.9997C46.3249 21.0078 46.3411 21.0159 46.3532 21.024C46.3735 21.0361 46.3897 21.0483 46.4099 21.0604C46.4261 21.0726 46.4383 21.0807 46.4545 21.0929C46.4707 21.105 46.4869 21.1212 46.5031 21.1374C46.5153 21.1496 46.5315 21.1658 46.5436 21.182C46.5599 21.1982 46.572 21.2185 46.5842 21.2347C46.5963 21.2509 46.6085 21.2671 46.6206 21.2833C46.6328 21.3035 46.6449 21.3279 46.6571 21.3481C46.6652 21.3684 46.6774 21.3846 46.6855 21.4048C46.7057 21.4494 46.7219 21.494 46.7381 21.5426C47.0987 22.6447 47.1636 23.7305 46.9286 24.8731C46.9286 24.8731 46.9286 24.8771 46.9286 24.8812C46.7786 25.6186 46.6652 26.3803 46.5599 27.1177C46.5234 27.3851 46.4829 27.6485 46.4424 27.9118C46.4302 28.005 46.4343 28.1063 46.4424 28.2117C46.4424 28.2481 46.4424 28.2805 46.4464 28.317C46.4869 29.415 46.9934 29.4474 47.1595 29.4596C47.4998 29.4839 47.8766 29.3421 48.1562 29.0949C48.375 28.9005 48.5006 28.6614 48.5128 28.4183C48.5168 28.313 48.5209 28.2117 48.5209 28.1063C48.5209 28.0861 48.5209 28.0658 48.5209 28.0456C48.5209 27.9605 48.5209 27.8794 48.5209 27.7943C48.5209 27.7822 48.5209 27.766 48.5209 27.7538C48.5209 27.6647 48.5168 27.5715 48.5128 27.4824C48.5128 27.4783 48.5128 27.4702 48.5128 27.4662C48.5087 27.3689 48.5006 27.2676 48.4966 27.1704C48.4682 26.7733 48.4277 26.3803 48.3831 25.9994C48.3345 25.57 48.2575 25.1283 48.1846 24.707C48.0914 24.16 47.9941 23.5968 47.9496 23.0336C47.9091 22.5312 48.0104 22.1179 48.2373 21.8181C48.2818 21.7573 48.3345 21.7006 48.3912 21.652C48.3912 21.652 48.3993 21.6439 48.4034 21.6398C48.452 21.5953 48.8815 21.4008 49.0597 21.3157L49.5905 21.5102L49.0881 21.6439C48.8977 21.6966 48.7437 21.7816 48.6222 21.891C49.473 22.0491 50.0321 22.0369 50.2793 21.8546C50.3927 21.7735 50.4373 21.652 50.4373 21.4575C50.4373 21.0159 50.1415 20.6877 49.8296 20.3392C49.4933 19.9624 49.1448 19.5735 49.1448 19.0184V18.5889C49.1448 18.1635 49.1813 17.7381 49.4406 17.5436C49.5297 17.4788 49.631 17.4463 49.7485 17.4463C49.8174 17.4463 49.8903 17.4585 49.9714 17.4788C50.3522 17.5882 50.8182 18.3296 51.3895 19.2818C51.5353 19.5249 51.6569 19.7315 51.746 19.8611C52.1957 20.5742 52.6455 21.2752 53.0912 21.9721L53.1722 22.0896C53.7394 22.9283 53.8812 23.1309 54.2418 23.2565C54.2459 23.2565 54.2499 23.2565 54.254 23.2605C54.2824 23.2686 54.3148 23.2808 54.3472 23.2889C54.3553 23.2889 54.3593 23.2889 54.3674 23.2929C54.3999 23.301 54.4363 23.3091 54.4728 23.3213C54.4809 23.3213 54.489 23.3213 54.4931 23.3253C54.5376 23.3375 54.5822 23.3456 54.6308 23.3578C54.7767 23.3902 54.9185 23.4226 55.0603 23.4509C54.9225 23.2484 54.7199 23.1106 54.4444 23.0336L53.942 22.8999L54.408 22.7297C54.9468 22.7743 55.3763 23.2848 55.4776 23.5441C55.5181 23.6535 55.5505 23.771 55.5708 23.9007C55.5951 24.0627 55.5992 24.2329 55.583 24.4233C55.5586 24.7475 55.5141 25.0757 55.4614 25.3957C55.4249 25.6307 55.3844 25.8657 55.3439 26.0967C55.271 26.5221 55.2912 26.1413 55.2426 26.5748C55.1535 27.3527 55.0684 28.1793 55.1089 28.9977C55.1211 29.2367 55.2467 29.4758 55.4655 29.6743C55.741 29.9215 56.1259 30.0592 56.4622 30.039C56.6283 30.0268 57.1348 29.9944 57.1753 28.8964C57.1753 28.8599 57.1753 28.8275 57.1793 28.7911C57.1874 28.6857 57.1915 28.5844 57.1793 28.4912C57.1388 28.2238 57.0173 27.9564 56.9524 27.6971C56.8552 27.3041 56.7296 27.061 56.6688 26.6801C56.6161 26.3398 56.681 26.6882 56.6121 26.356C56.608 26.3276 56.5999 26.2952 56.5959 26.2669C56.5189 25.886 56.4743 25.5132 56.4622 25.1405C56.4541 24.9014 56.4622 24.6664 56.4824 24.4274L56.7985 24.5935C56.7863 24.7434 56.8147 24.9501 56.7985 25.1C56.7985 25.1121 56.7985 25.1243 56.7944 25.1364C56.7701 25.339 56.8673 25.5416 56.843 25.7401C56.8633 25.8941 56.8876 26.044 56.92 26.198C56.9281 26.2426 56.9362 26.2912 56.9484 26.3357C57.0051 26.6234 57.0578 26.9111 57.1023 27.1987C57.1145 27.2676 57.1266 27.3365 57.1347 27.4054C57.1469 27.4094 57.155 27.4135 57.1672 27.4175C57.2158 27.4337 57.2725 27.4459 57.3292 27.454C57.3576 27.454 57.39 27.4621 57.4224 27.4621C57.783 27.4824 58.0302 27.373 58.1477 27.1218C58.1963 27.0205 58.2206 26.8989 58.2247 26.749C58.2247 26.6761 58.2247 26.595 58.2165 26.51C58.1882 26.2142 58.1234 25.9265 58.0585 25.6348C58.0383 25.5538 58.0221 25.4727 58.0018 25.3957C58.0018 25.3795 57.9937 25.3633 57.9897 25.3471C57.9613 25.2175 57.9289 25.0878 57.9046 24.9582C57.8924 24.9014 57.8843 24.8488 57.8722 24.792C57.8438 24.6421 57.8195 24.4922 57.8154 24.3423C57.8154 24.3261 57.8154 24.3058 57.8154 24.2896C57.8154 24.237 57.8154 24.1883 57.8235 24.1397C57.8276 24.0952 57.8357 24.0546 57.8438 24.0141C57.8438 23.9979 57.8478 23.9817 57.8519 23.9655C57.8803 23.8561 57.9208 23.7548 57.9816 23.6738C58.014 23.6333 58.0504 23.5968 58.0909 23.5644C58.1477 23.5239 58.2125 23.4915 58.2895 23.4671V23.6373C58.1922 23.6778 58.0585 23.7751 58.0059 24.0384C58.0423 24.0465 58.0828 24.0506 58.1193 24.0587C58.8365 24.1843 59.3105 24.1438 59.5577 23.9331C59.7035 23.8115 59.7724 23.6292 59.7724 23.374C59.7724 23.3253 59.7724 23.2808 59.7643 23.2362C59.7643 23.2362 59.7643 23.2362 59.7643 23.2321C59.7076 22.6284 59.2902 22.357 58.8121 22.0491C58.5002 21.8465 58.176 21.6398 57.937 21.3198V21.3116C56.8471 19.7234 55.7005 18.0136 54.5255 16.2227L54.5174 16.2065L54.3958 15.9715C54.019 15.2422 53.942 15.0923 54.0271 14.5777C54.1446 13.8768 55.1859 13.1718 55.8787 12.7059C56.057 12.5843 56.211 12.483 56.2961 12.4141C56.5797 12.1873 56.9322 12.1386 57.2401 12.0981C57.7992 12.0211 58.2044 11.9644 58.2044 11.0082C58.2044 9.86159 56.4217 9.47668 55.3561 9.24573C55.2102 9.21332 55.0805 9.18496 54.9671 9.16065C54.8699 9.14039 54.7483 9.11202 54.6106 9.08366C53.7881 8.89729 52.2606 8.55289 51.6974 9.00263C51.5515 9.12013 51.4786 9.2903 51.4786 9.52124C51.4786 9.71573 51.5515 9.88184 51.6326 10.0561C51.7176 10.2505 51.8068 10.4491 51.8068 10.6962C51.8068 11.1298 50.96 12.0373 50.3765 12.4749C49.9673 12.7788 49.6472 12.9004 49.4203 12.8355C49.0841 12.7383 48.9139 12.3574 48.9139 11.7011C48.9139 10.1574 49.3839 9.88995 49.7242 9.69547C49.9268 9.57797 50.0403 9.51719 50.0403 9.1728C50.0403 7.94514 48.1886 7.3698 47.1919 7.06187L47.0542 7.02135C44.3679 6.1786 43.4279 6.28395 43.1119 6.51895C42.966 6.62834 42.9579 6.77015 42.9579 6.93222V6.97273L42.9336 6.98084Z" fill="white"/>
<path d="M11.771 44.945H10.4137V44.0375C10.4137 43.7741 10.3975 43.608 10.3691 43.5432C10.3408 43.4783 10.2759 43.4459 10.1787 43.4459C10.0652 43.4459 9.99636 43.4864 9.968 43.5634C9.93964 43.6444 9.92343 43.8146 9.92343 44.078V46.5009C9.92343 46.7561 9.93964 46.9182 9.968 46.9952C9.99636 47.0722 10.0652 47.1127 10.1706 47.1127C10.2759 47.1127 10.3367 47.0722 10.3691 46.9952C10.4015 46.9182 10.4177 46.7359 10.4177 46.4482V45.7918H11.7751V45.9944C11.7751 46.5333 11.7386 46.9182 11.6616 47.141C11.5846 47.3679 11.4185 47.5665 11.1551 47.7326C10.8958 47.9028 10.5717 47.9879 10.1908 47.9879C9.80998 47.9879 9.46559 47.9149 9.21033 47.7731C8.95103 47.6313 8.78085 47.4287 8.69982 47.1775C8.61474 46.9223 8.57422 46.5414 8.57422 46.0309V44.5075C8.57422 44.1306 8.58637 43.8511 8.61474 43.6607C8.63905 43.4743 8.71603 43.2919 8.84568 43.1177C8.97128 42.9435 9.14956 42.8057 9.37645 42.7085C9.60335 42.6072 9.86265 42.5586 10.1584 42.5586C10.5595 42.5586 10.8877 42.6356 11.147 42.7895C11.4063 42.9435 11.5765 43.138 11.6576 43.3649C11.7386 43.5958 11.7791 43.9524 11.7791 44.4386V44.9329L11.771 44.945Z" fill="white"/>
<path d="M15.7494 45.7267C15.7494 46.2494 15.7373 46.6221 15.713 46.8409C15.6887 47.0597 15.6117 47.2583 15.482 47.4365C15.3524 47.6148 15.1781 47.7566 14.9553 47.8539C14.7325 47.9511 14.4772 47.9997 14.1814 47.9997C13.8857 47.9997 13.6507 47.9551 13.4278 47.862C13.205 47.7688 13.0267 47.6351 12.893 47.4527C12.7593 47.2704 12.6783 47.0719 12.6499 46.8571C12.6256 46.6424 12.6094 46.2656 12.6094 45.7308V44.8394C12.6094 44.3167 12.6215 43.944 12.6458 43.7252C12.6701 43.5064 12.7471 43.3079 12.8768 43.1296C13.0064 42.9513 13.1807 42.8095 13.4035 42.7123C13.6263 42.615 13.8816 42.5664 14.1774 42.5664C14.4569 42.5664 14.7081 42.611 14.931 42.7042C15.1538 42.7974 15.3321 42.9311 15.4658 43.1134C15.5995 43.2957 15.6806 43.4942 15.7089 43.709C15.7373 43.9237 15.7494 44.3005 15.7494 44.8354V45.7267ZM14.3921 44.0129C14.3921 43.7698 14.38 43.6158 14.3516 43.5469C14.3232 43.478 14.2706 43.4456 14.1855 43.4456C14.1125 43.4456 14.0599 43.474 14.0234 43.5267C13.9869 43.5793 13.9667 43.7414 13.9667 44.0129V46.4479C13.9667 46.7518 13.9788 46.9382 14.0032 47.0071C14.0275 47.0759 14.0842 47.1124 14.1774 47.1124C14.2706 47.1124 14.3273 47.0719 14.3557 46.9908C14.38 46.9098 14.3962 46.7153 14.3962 46.4074V44.0129H14.3921Z" fill="white"/>
<path d="M19.7455 45.7267C19.7455 46.2494 19.7334 46.6221 19.7091 46.8409C19.6847 47.0597 19.6078 47.2583 19.4781 47.4365C19.3485 47.6148 19.1742 47.7566 18.9514 47.8539C18.7286 47.9511 18.4733 47.9997 18.1775 47.9997C17.8817 47.9997 17.6468 47.9551 17.4239 47.862C17.2011 47.7688 17.0228 47.6351 16.8891 47.4527C16.7554 47.2704 16.6743 47.0719 16.646 46.8571C16.6217 46.6424 16.6055 46.2656 16.6055 45.7308V44.8394C16.6055 44.3167 16.6176 43.944 16.6419 43.7252C16.6662 43.5064 16.7432 43.3079 16.8729 43.1296C17.0025 42.9513 17.1768 42.8095 17.3996 42.7123C17.6224 42.615 17.8777 42.5664 18.1735 42.5664C18.453 42.5664 18.7042 42.611 18.9271 42.7042C19.1499 42.7974 19.3282 42.9311 19.4619 43.1134C19.5956 43.2957 19.6766 43.4942 19.705 43.709C19.7334 43.9237 19.7455 44.3005 19.7455 44.8354V45.7267ZM18.3882 44.0129C18.3882 43.7698 18.3761 43.6158 18.3477 43.5469C18.3193 43.478 18.2667 43.4456 18.1816 43.4456C18.1086 43.4456 18.056 43.474 18.0195 43.5267C17.983 43.5793 17.9628 43.7414 17.9628 44.0129V46.4479C17.9628 46.7518 17.9749 46.9382 17.9992 47.0071C18.0236 47.0759 18.0803 47.1124 18.1735 47.1124C18.2667 47.1124 18.3234 47.0719 18.3517 46.9908C18.3761 46.9098 18.3923 46.7153 18.3923 46.4074V44.0129H18.3882Z" fill="white"/>
<path d="M23.8818 42.6719L23.1039 45.0259L23.9548 47.8864H22.5529L22.0018 45.6539V47.8864H20.6445V42.6719H22.0018V44.6977L22.6055 42.6719H23.8778H23.8818Z" fill="white"/>
<path d="M25.9393 42.6719V47.8864H24.582V42.6719H25.9393Z" fill="white"/>
<path d="M26.8789 42.672H29.1397V43.7133H28.2362V44.7019H29.083V45.6946H28.2362V46.8412H29.2329V47.8825H26.883V42.668L26.8789 42.672Z" fill="white"/>
<path d="M35.0079 45.9087V46.788L34.6433 47.0189L35.097 47.89H33.8937L33.7357 47.6023C33.3305 47.8698 32.9497 47.9994 32.5891 47.9994C32.2285 47.9994 31.9205 47.8738 31.7179 47.6226C31.5154 47.3714 31.4141 47.0675 31.4141 46.715C31.4141 46.4314 31.4748 46.2086 31.5923 46.0465C31.7139 45.8844 31.8922 45.7548 32.1353 45.6535C31.7909 45.4063 31.6207 45.0741 31.6207 44.6527C31.6207 44.2881 31.7422 43.9963 31.9894 43.7776C32.2325 43.5547 32.5728 43.4453 33.0023 43.4453C33.3872 43.4453 33.6911 43.5547 33.914 43.7694C34.1368 43.9882 34.2462 44.2638 34.2462 44.596C34.2462 44.9485 34.1125 45.2605 33.841 45.5319L34.2989 46.3625L35.0079 45.9047V45.9087ZM33.294 47.0108L32.8727 46.3058C32.7106 46.4517 32.6296 46.6097 32.6296 46.7798C32.6296 46.9014 32.6539 46.9946 32.7066 47.0554C32.7592 47.1161 32.8322 47.1486 32.9294 47.1486C33.0347 47.1486 33.1563 47.104 33.294 47.0108ZM33.0023 44.9971C33.1482 44.8067 33.2211 44.6203 33.2211 44.4461C33.2211 44.3691 33.2009 44.3002 33.1563 44.2394C33.1117 44.1787 33.055 44.1463 32.978 44.1463C32.9051 44.1463 32.8524 44.1706 32.8159 44.2192C32.7795 44.2678 32.7633 44.3407 32.7633 44.4339C32.7633 44.6365 32.8443 44.8229 33.0064 44.9971H33.0023Z" fill="white"/>
<path d="M37.3283 42.672H38.6937C39.0624 42.672 39.346 42.7004 39.5445 42.7571C39.7431 42.8138 39.893 42.8989 39.9902 43.0083C40.0875 43.1177 40.1563 43.2514 40.1928 43.4054C40.2293 43.5593 40.2455 43.8024 40.2455 44.1266V44.5804C40.2455 44.9126 40.209 45.1557 40.1442 45.3097C40.0753 45.4636 39.9497 45.5771 39.7674 45.6622C39.5851 45.7432 39.342 45.7837 39.0462 45.7837H38.6815V47.8825H37.3242V42.668L37.3283 42.672ZM38.6856 43.5634V44.8883C38.7261 44.8883 38.7585 44.8883 38.7869 44.8883C38.9125 44.8883 38.9976 44.8559 39.0462 44.7951C39.0948 44.7343 39.1191 44.6087 39.1191 44.4142V43.9848C39.1191 43.8065 39.0908 43.689 39.034 43.6363C38.9773 43.5836 38.8639 43.5553 38.6856 43.5553V43.5634Z" fill="white"/>
<path d="M44.1322 45.7267C44.1322 46.2494 44.1201 46.6221 44.0958 46.8409C44.0715 47.0597 43.9945 47.2583 43.8648 47.4365C43.7352 47.6148 43.561 47.7566 43.3381 47.8539C43.1153 47.9511 42.86 47.9997 42.5642 47.9997C42.2685 47.9997 42.0335 47.9551 41.8106 47.862C41.5878 47.7688 41.4095 47.6351 41.2758 47.4527C41.1421 47.2704 41.0611 47.0719 41.0327 46.8571C41.0084 46.6424 40.9922 46.2656 40.9922 45.7308V44.8394C40.9922 44.3167 41.0043 43.944 41.0287 43.7252C41.053 43.5064 41.1299 43.3079 41.2596 43.1296C41.3893 42.9513 41.5635 42.8095 41.7863 42.7123C42.0092 42.615 42.2644 42.5664 42.5602 42.5664C42.8398 42.5664 43.091 42.611 43.3138 42.7042C43.5366 42.7974 43.7149 42.9311 43.8486 43.1134C43.9823 43.2957 44.0634 43.4942 44.0917 43.709C44.1201 43.9237 44.1322 44.3005 44.1322 44.8354V45.7267ZM42.7749 44.0129C42.7749 43.7698 42.7628 43.6158 42.7344 43.5469C42.7061 43.478 42.6534 43.4456 42.5683 43.4456C42.4954 43.4456 42.4427 43.474 42.4062 43.5267C42.3698 43.5793 42.3495 43.7414 42.3495 44.0129V46.4479C42.3495 46.7518 42.3617 46.9382 42.386 47.0071C42.4103 47.0759 42.467 47.1124 42.5602 47.1124C42.6534 47.1124 42.7101 47.0719 42.7385 46.9908C42.7628 46.9098 42.779 46.7153 42.779 46.4074V44.0129H42.7749Z" fill="white"/>
<path d="M45.0314 42.672H46.3968C46.7655 42.672 47.0491 42.7004 47.2477 42.7571C47.4462 42.8138 47.5961 42.8989 47.6934 43.0083C47.7906 43.1177 47.8595 43.2514 47.8959 43.4054C47.9324 43.5593 47.9486 43.8024 47.9486 44.1266V44.5804C47.9486 44.9126 47.9121 45.1557 47.8473 45.3097C47.7784 45.4636 47.6528 45.5771 47.4705 45.6622C47.2882 45.7432 47.0451 45.7837 46.7493 45.7837H46.3847V47.8825H45.0273V42.668L45.0314 42.672ZM46.3887 43.5634V44.8883C46.4292 44.8883 46.4616 44.8883 46.49 44.8883C46.6156 44.8883 46.7007 44.8559 46.7493 44.7951C46.7979 44.7343 46.8222 44.6087 46.8222 44.4142V43.9848C46.8222 43.8065 46.7939 43.689 46.7372 43.6363C46.6804 43.5836 46.567 43.5553 46.3887 43.5553V43.5634Z" fill="white"/>
<path d="M53.4585 44.945H52.1012V44.0375C52.1012 43.7741 52.085 43.608 52.0566 43.5432C52.0283 43.4783 51.9634 43.4459 51.8662 43.4459C51.7527 43.4459 51.6839 43.4864 51.6555 43.5634C51.6271 43.6444 51.6109 43.8146 51.6109 44.078V46.5009C51.6109 46.7561 51.6271 46.9182 51.6555 46.9952C51.6839 47.0722 51.7527 47.1127 51.8581 47.1127C51.9634 47.1127 52.0242 47.0722 52.0566 46.9952C52.089 46.9182 52.1052 46.7359 52.1052 46.4482V45.7918H53.4625V45.9944C53.4625 46.5333 53.4261 46.9182 53.3491 47.141C53.2721 47.3679 53.106 47.5665 52.8426 47.7326C52.5833 47.9028 52.2592 47.9879 51.8783 47.9879C51.4975 47.9879 51.1531 47.9149 50.8978 47.7731C50.6385 47.6313 50.4684 47.4287 50.3873 47.1775C50.3022 46.9223 50.2617 46.5414 50.2617 46.0309V44.5075C50.2617 44.1306 50.2739 43.8511 50.3022 43.6607C50.3265 43.4743 50.4035 43.2919 50.5332 43.1177C50.6588 42.9435 50.8371 42.8057 51.064 42.7085C51.2908 42.6072 51.5502 42.5586 51.8459 42.5586C52.247 42.5586 52.5752 42.6356 52.8345 42.7895C53.0938 42.9435 53.264 43.138 53.3451 43.3649C53.4261 43.5958 53.4666 43.9524 53.4666 44.4386V44.9329L53.4585 44.945Z" fill="white"/>
<path d="M57.4239 42.6719V46.1563C57.4239 46.5493 57.4117 46.8289 57.3834 46.9869C57.3591 47.1449 57.2821 47.3111 57.1565 47.4812C57.0309 47.6514 56.8648 47.777 56.6541 47.8661C56.4474 47.9512 56.2043 47.9958 55.9207 47.9958C55.6087 47.9958 55.3332 47.9431 55.0982 47.8418C54.8632 47.7405 54.6809 47.6028 54.5634 47.4407C54.4459 47.2746 54.377 47.1004 54.3527 46.918C54.3284 46.7357 54.3203 46.3468 54.3203 45.7593V42.6759H55.6776V46.5858C55.6776 46.8127 55.6898 46.9586 55.7141 47.0234C55.7384 47.0882 55.787 47.1166 55.864 47.1166C55.9491 47.1166 56.0058 47.0801 56.0301 47.0112C56.0544 46.9424 56.0666 46.7762 56.0666 46.5169V42.6759H57.4239V42.6719Z" fill="white"/>
<path d="M59.6972 42.672V46.8412H60.5196V47.8825H58.3398V42.668H59.6972V42.672Z" fill="white"/>
<path d="M63.5049 42.6719V43.7132H62.6986V47.8823H61.3413V43.7132H60.5391V42.6719H63.5008H63.5049Z" fill="white"/>
<path d="M67.295 42.6719V46.1563C67.295 46.5493 67.2828 46.8289 67.2545 46.9869C67.2302 47.1449 67.1532 47.3111 67.0276 47.4812C66.902 47.6514 66.7359 47.777 66.5252 47.8661C66.3185 47.9512 66.0754 47.9958 65.7918 47.9958C65.4798 47.9958 65.2043 47.9431 64.9693 47.8418C64.7343 47.7405 64.552 47.6028 64.4345 47.4407C64.317 47.2746 64.2481 47.1004 64.2238 46.918C64.1995 46.7357 64.1914 46.3468 64.1914 45.7593V42.6759H65.5487V46.5858C65.5487 46.8127 65.5609 46.9586 65.5852 47.0234C65.6095 47.0882 65.6581 47.1166 65.7351 47.1166C65.8202 47.1166 65.8769 47.0801 65.9012 47.0112C65.9255 46.9424 65.9377 46.7762 65.9377 46.5169V42.6759H67.295V42.6719Z" fill="white"/>
<path d="M68.2109 42.6722H69.1712C69.8114 42.6722 70.2449 42.6965 70.4718 42.7451C70.6987 42.7937 70.881 42.9193 71.0269 43.1219C71.1687 43.3245 71.2416 43.6486 71.2416 44.0943C71.2416 44.4995 71.193 44.7709 71.0917 44.9127C70.9904 45.0505 70.7919 45.1356 70.4961 45.164C70.7635 45.2288 70.9458 45.3179 71.035 45.4314C71.1282 45.5448 71.1849 45.6461 71.2092 45.7393C71.2335 45.8325 71.2416 46.0918 71.2416 46.5091V47.8826H69.9815V46.1485C69.9815 45.8689 69.9613 45.6947 69.9167 45.6299C69.8721 45.5651 69.7587 45.5286 69.5723 45.5286V47.8786H68.215V42.6641L68.2109 42.6722ZM69.5682 43.5635V44.7223C69.7222 44.7223 69.8276 44.7021 69.8883 44.6615C69.9491 44.621 69.9815 44.4833 69.9815 44.2523V43.9647C69.9815 43.7985 69.9532 43.6891 69.8924 43.6405C69.8316 43.5878 69.7263 43.5635 69.5682 43.5635Z" fill="white"/>
<path d="M72.1602 42.672H74.421V43.7133H73.5175V44.7019H74.3643V45.6946H73.5175V46.8412H74.5142V47.8825H72.1642V42.668L72.1602 42.672Z" fill="white"/>
</svg>