<svg xmlns="http://www.w3.org/2000/svg" width="26" height="26" viewBox="0 0 26 26" fill="none">
  <path d="M13 0C10.4288 0 7.91543 0.762437 5.77759 2.19089C3.63975 3.61935 1.97351 5.64967 0.989572 8.02511C0.0056327 10.4006 -0.251811 13.0144 0.249797 15.5362C0.751405 18.0579 1.98953 20.3743 3.80762 22.1924C5.6257 24.0105 7.94208 25.2486 10.4638 25.7502C12.9856 26.2518 15.5994 25.9944 17.9749 25.0104C20.3503 24.0265 22.3806 22.3602 23.8091 20.2224C25.2376 18.0846 26 15.5712 26 13C25.9964 9.5533 24.6256 6.24881 22.1884 3.81163C19.7512 1.37445 16.4467 0.00363977 13 0ZM17.7075 16.2925C17.8004 16.3854 17.8741 16.4957 17.9244 16.6171C17.9747 16.7385 18.0006 16.8686 18.0006 17C18.0006 17.1314 17.9747 17.2615 17.9244 17.3829C17.8741 17.5043 17.8004 17.6146 17.7075 17.7075C17.6146 17.8004 17.5043 17.8741 17.3829 17.9244C17.2615 17.9747 17.1314 18.0006 17 18.0006C16.8686 18.0006 16.7385 17.9747 16.6171 17.9244C16.4957 17.8741 16.3854 17.8004 16.2925 17.7075L13 14.4137L9.7075 17.7075C9.61459 17.8004 9.50429 17.8741 9.3829 17.9244C9.26151 17.9747 9.1314 18.0006 9 18.0006C8.86861 18.0006 8.7385 17.9747 8.61711 17.9244C8.49571 17.8741 8.38541 17.8004 8.2925 17.7075C8.19959 17.6146 8.12589 17.5043 8.07561 17.3829C8.02533 17.2615 7.99945 17.1314 7.99945 17C7.99945 16.8686 8.02533 16.7385 8.07561 16.6171C8.12589 16.4957 8.19959 16.3854 8.2925 16.2925L11.5863 13L8.2925 9.7075C8.10486 9.51986 7.99945 9.26536 7.99945 9C7.99945 8.73463 8.10486 8.48014 8.2925 8.2925C8.48014 8.10486 8.73464 7.99944 9 7.99944C9.26537 7.99944 9.51986 8.10486 9.7075 8.2925L13 11.5862L16.2925 8.2925C16.3854 8.19959 16.4957 8.12589 16.6171 8.0756C16.7385 8.02532 16.8686 7.99944 17 7.99944C17.1314 7.99944 17.2615 8.02532 17.3829 8.0756C17.5043 8.12589 17.6146 8.19959 17.7075 8.2925C17.8004 8.38541 17.8741 8.49571 17.9244 8.6171C17.9747 8.73849 18.0006 8.8686 18.0006 9C18.0006 9.13139 17.9747 9.2615 17.9244 9.38289C17.8741 9.50429 17.8004 9.61459 17.7075 9.7075L14.4138 13L17.7075 16.2925Z" fill="#B5B5B5"/>
</svg>