<svg xmlns="http://www.w3.org/2000/svg" width="17" height="17" viewBox="0 0 17 17" fill="none">
  <path d="M16.3395 6.63424H15.675V6.6H8.25V9.9H12.9125C12.2323 11.821 10.4045 13.2 8.25 13.2C5.51636 13.2 3.3 10.9836 3.3 8.25C3.3 5.51636 5.51636 3.3 8.25 3.3C9.51184 3.3 10.6598 3.77602 11.5339 4.55359L13.8674 2.22007C12.394 0.846862 10.423 0 8.25 0C3.69394 0 0 3.69394 0 8.25C0 12.8061 3.69394 16.5 8.25 16.5C12.8061 16.5 16.5 12.8061 16.5 8.25C16.5 7.69684 16.4431 7.15688 16.3395 6.63424Z" fill="#FFC107"/>
  <path d="M0.953125 4.41004L3.66366 6.39788C4.39709 4.58205 6.17331 3.3 8.2519 3.3C9.51374 3.3 10.6617 3.77603 11.5358 4.55359L13.8693 2.22008C12.3959 0.846863 10.4249 0 8.2519 0C5.08308 0 2.335 1.78901 0.953125 4.41004Z" fill="#FF3D00"/>
  <path d="M8.25081 16.4996C10.3818 16.4996 12.3181 15.6841 13.782 14.3579L11.2287 12.1972C10.3725 12.8483 9.32639 13.2005 8.25081 13.1996C6.10499 13.1996 4.28297 11.8313 3.59657 9.92188L0.90625 11.9947C2.27162 14.6664 5.04445 16.4996 8.25081 16.4996Z" fill="#4CAF50"/>
  <path d="M16.3395 6.63189H15.675V6.59766H8.25V9.89766H12.9125C12.5871 10.8119 12.001 11.6108 11.2266 12.1957L11.2278 12.1949L13.7812 14.3555C13.6005 14.5197 16.5 12.3727 16.5 8.24766C16.5 7.69449 16.4431 7.15453 16.3395 6.63189Z" fill="#1976D2"/>
</svg>