<svg xmlns="http://www.w3.org/2000/svg" width="22" height="22" viewBox="0 0 22 22" fill="none">
  <path d="M7.07658 15.0846L8.69083 14.6189L18.4102 4.78307C18.4869 4.7045 18.5296 4.59894 18.5291 4.48917C18.5286 4.3794 18.4849 4.27424 18.4075 4.1964L17.8254 3.6079C17.7878 3.56925 17.7429 3.53848 17.6932 3.51739C17.6436 3.49629 17.5903 3.4853 17.5363 3.48504C17.4824 3.48478 17.429 3.49527 17.3791 3.51589C17.3293 3.53652 17.2841 3.56686 17.2461 3.60515L7.55233 13.4153L7.07567 15.0837L7.07658 15.0846ZM18.9777 2.4419L19.5597 3.03132C20.3627 3.8444 20.3701 5.15615 19.5744 5.96098L9.55892 16.0975L6.10858 17.0912C5.89793 17.1501 5.67249 17.1231 5.48173 17.016C5.29098 16.909 5.15048 16.7306 5.09108 16.5201C5.04689 16.3687 5.04625 16.2079 5.08925 16.0562L6.093 12.5362L16.0819 2.42632C16.2719 2.23506 16.498 2.08354 16.7471 1.98059C16.9962 1.87764 17.2633 1.82532 17.5329 1.82669C17.8024 1.82805 18.069 1.88307 18.317 1.98854C18.5651 2.09401 18.7897 2.24873 18.9777 2.4419ZM8.41858 3.49882C8.87325 3.49882 9.24175 3.8719 9.24175 4.33207C9.24248 4.44085 9.22175 4.5487 9.18076 4.64947C9.13978 4.75023 9.07933 4.84193 9.00288 4.91931C8.92643 4.9967 8.83547 5.05826 8.73522 5.10047C8.63496 5.14268 8.52736 5.16472 8.41858 5.16532H5.12592C4.21659 5.16532 3.47959 5.91148 3.47959 6.8309V16.8281C3.47959 17.7484 4.21659 18.4946 5.12592 18.4946H15.0039C15.9132 18.4946 16.6512 17.7484 16.6512 16.8281V13.496C16.6512 13.0358 17.0197 12.6627 17.4743 12.6627C17.929 12.6627 18.2975 13.0358 18.2975 13.4969V16.8281C18.2975 18.6687 16.8226 20.1611 15.0039 20.1611H5.12592C3.30725 20.1611 1.83325 18.6687 1.83325 16.8281V6.8309C1.83325 4.99115 3.30725 3.49882 5.12592 3.49882H8.41858Z" fill="white"/>
</svg>